<svg xmlns="http://www.w3.org/2000/svg" fill="none" viewBox="0 0 900 850"><path fill="#7BC0D6" d="m269 554.9 350 43C595.2 693.6 483.6 843 304 838.2c-58.8-1.6-140.8-28-205.7-84C29.3 679 25 658 9.5 571-2.7 397.8 109.7 236.8 283 223.3c101.4-9.5 206.5 30.2 271.3 107.7L269 555Z"/><path fill="#34353D" d="m312.3 536 269.5-197.7c-30.5-36.7-61.9-65.5-91.6-84.6a296.9 296.9 0 0 0-152.5-47.2c-175.3-7-286 110.8-324.4 236.5-39.7 130 7.9 302.6 165.5 376.8 24.9 11.8 72.4 33.6 151 29.8A311.6 311.6 0 0 0 474.6 807a279.8 279.8 0 0 0 98.2-93.2c17.2-27.9 32.4-50 61.2-126.6L312.4 536ZM136.7 391.6C87.9 447.3 81 511.4 86 557.9c4.7 44.5 32 144 154.5 185.9 41.5 14.1 113.3 14.8 177-14.7A220.2 220.2 0 0 0 532 593l70.5 9.6c-15.4 46.3-26.7 69.1-44.5 96.3a275.6 275.6 0 0 1-144.4 112.7c-65 23.3-144.6 28.5-208 4.2-139-53.5-219-195.5-186-349 19.2-89.9 75.9-156 150.4-196.5 123.4-67.2 273.3-54.2 371.5 64-26.1 20.8-25.6 20.4-61.9 50-28.3-29-54-46-77.6-56.3-112.3-49.2-216.6 7.8-265.3 63.6Z"/><path fill="#E50D3B" d="m512.5 602.7-257.5-51 183.2-152.3c-71.7-86.6-214.4-72-288.9 16A201.8 201.8 0 0 0 162.8 679c33.3 33.3 92.5 57.5 168.8 52.5 80.5-6.2 147.3-55.5 180.9-129Z"/><path fill="#fff" d="M304.4 740.6a205.7 205.7 0 0 1-148.9-62.9C92 614.2 68.3 498.8 141.3 409.1c41.9-49 103-77.3 167.5-77.6h1c52.6-1.2 101.4 16 144.6 61 2.1 2.2 6.2 7 6.2 7l-191.5 145 248 46.2-2.5 9-2 6.1A208.7 208.7 0 0 1 332 740c-7 .5-20.8.7-27.7.7Zm4.3-389c-58.5.4-111.8 26-149.7 70.4-65.7 81.1-41.5 186.5 13.5 241.4a191 191 0 0 0 152 56.4c72.2-5.7 124.3-45.5 158.7-109.3l-263.7-51.7L429 398.3c-29.9-30.5-75.8-47.4-118.6-46.6h-1.6Zm282.9 132.5L699 226.3l166.4 85.4-105 255.5-168.7-83Z"/><path fill="#34353D" d="m702.2 217.3-2.1-.8a7 7 0 0 0-9.6 3.8L582.8 450.2c-5.7 10.6-10 22.7-15.8 33.4-3 6.6-.2 14.5 6.3 17.7 0 0 104.8 47 158.8 68 17.2 6.6 27.6 11.3 32.5 8.8 4.9-2.6 7-7.8 15.1-26C810.4 483.3 896 311 896 311a14.5 14.5 0 0 0-7.6-20.5l-186.2-73.2Zm-3.4 10.7 163.5 84.2L758.6 564l-161.7-81.6L698.8 228Z"/><path fill="#fff" d="m725.4 156.4 40.3-99.8 58.4 34.6-35.8 97.9-63-32.7Z"/><path fill="#34353D" d="m765.5 48-.9-.4a3 3 0 0 0-4 1.6L715 146.4c-2.4 4.5-4.2 9.6-6.6 14.1a5.7 5.7 0 0 0 2.6 7.5s44.3 19.9 67.1 28.7c7.3 2.8 11.7 4.9 13.8 3.8 2-1.1 3-3.3 6.4-11 13-29.1 49.1-102 49.1-102a6.1 6.1 0 0 0-3.2-8.6l-78.7-31Zm2 12.8 55 30.7-35.7 95L729 155l38.7-94Z"/><path fill="#fff" d="m506.9 182 71.8-166.9 104.7 57.5-70 161.5L507 182Z"/><path fill="#34353D" d="m577.7 3.3-1.5-.6a4.9 4.9 0 0 0-6.6 2.7l-74.2 158.3c-4 7.4-7 15.7-10.9 23A9.3 9.3 0 0 0 489 199s72.2 32.4 109.4 46.8c11.8 4.6 19 7.9 22.4 6.1 3.4-1.7 4.8-5.4 10.4-17.9 21-47.5 80-166 80-166a10 10 0 0 0-5.2-14.2L577.7 3.3Zm1.1 14.9 102.7 52.7-68.8 163.3L510.5 182l68.3-163.8Z"/></svg>