<svg xmlns="http://www.w3.org/2000/svg" xml:space="preserve" width="18" height="20" viewBox="0 -960 720 800"><path d="M600-160q-50 0-85-35t-35-85q0-7 1-14.5t3-13.5L202-472q-17 15-38 23.5t-44 8.5q-50 0-85-35T0-560q0-50 35-85t85-35q23 0 44 8.5t38 23.5l282-164q-2-6-3-13.5t-1-14.5q0-50 35-85t85-35q50 0 85 35t35 85q0 50-35 85t-85 35q-23 0-44-8.5T518-752L236-588q2 6 3 13.5t1 14.5q0 7-1 14.5t-3 13.5l282 164q17-15 38-23.5t44-8.5q50 0 85 35t35 85q0 50-35 85t-85 35zm0-640q17 0 28.5-11.5T640-840q0-17-11.5-28.5T600-880q-17 0-28.5 11.5T560-840q0 17 11.5 28.5T600-800zM120-520q17 0 28.5-11.5T160-560q0-17-11.5-28.5T120-600q-17 0-28.5 11.5T80-560q0 17 11.5 28.5T120-520zm480 280q17 0 28.5-11.5T640-280q0-17-11.5-28.5T600-320q-17 0-28.5 11.5T560-280q0 17 11.5 28.5T600-240zm0-600zM120-560zm480 280z" style="stroke-width:1;stroke-dasharray:none;fill:#d693ed"/></svg>