<svg xmlns="http://www.w3.org/2000/svg" xml:space="preserve" id="svg1213" width="32.539" height="32.539" version="1.1" viewBox="0 -960 1301.545 1301.545"><style id="style2942" type="text/css">.st0{fill:#14a800}</style><g id="g2948" transform="translate(0 -960) scale(32.53863)"><path id="path2944" d="M27.8 15.8c-2.1 0-3.6 1.4-4.2 5.7.4.7 1.9 2.5 4.2 2.5 2 0 3.6-1.7 3.6-4.1 0-2.5-1.6-4.1-3.6-4.1z" class="st0"/><path id="path2946" d="M20 0C9 0 0 9 0 20s9 20 20 20 20-9 20-20S31 0 20 0Zm7.8 26.6h-.3c-1.2 0-2.3-.4-3.3-1-.4-.2-.7-.5-1.1-.8l-1 6.4h-3l1.6-9.1c-1.7-2.4-2.6-5.1-2.9-6.5v4.3c0 3.9-2.5 6.7-6 6.7-1.8 0-3.3-.7-4.4-1.9-1.1-1.2-1.7-2.9-1.7-4.8v-6.4h2.9v6.4c0 2.3 1.2 4 3.2 4s3.1-1.7 3.1-4v-6.4H20c.4 1.6.9 3.3 1.5 4.6.6-2.5 2.6-4.9 6.3-4.9 3.6 0 6.5 2.9 6.5 6.7 0 3.8-2.8 6.7-6.5 6.7z" class="st0"/></g></svg>